<svg id="Layer_5" enable-background="new 0 0 64 64" height="512" viewBox="0 0 64 64" width="512" xmlns="http://www.w3.org/2000/svg"><g><path d="m52 10c.552 0 1 .449 1 1h2c0-1.302-.839-2.402-2-2.816v-2.184h-2v2.184c-1.161.414-2 1.514-2 2.816 0 1.654 1.346 3 3 3 .552 0 1 .449 1 1s-.448 1-1 1-1-.449-1-1h-2c0 1.302.839 2.402 2 2.816v2.184h2v-2.184c1.161-.414 2-1.514 2-2.816 0-1.654-1.346-3-3-3-.552 0-1-.449-1-1s.448-1 1-1z"/><path d="m63 13c0-6.065-4.935-11-11-11s-11 4.935-11 11c0 4.221 2.393 7.889 5.891 9.733-3.594 11.051-13.516 19.01-25.092 20.115-.68-1.575-1.644-3.026-2.86-4.3l-.649-3.896c.879.226 1.788.348 2.71.348 3.309 0 6-2.691 6-6v-3.279l3-1v-.721c0-4.936-2.488-8.558-3.677-10.008 1.612-1.077 2.677-2.912 2.677-4.992 0-3.309-2.691-6-6-6-1.074 0-2.081.288-2.955.784-1.087-1.697-2.979-2.784-5.045-2.784-1.876 0-3.627.891-4.753 2.374-.724-.249-1.476-.374-2.247-.374-3.859 0-7 3.14-7 7 0 2.092.927 3.968 2.387 5.251-1.54 1.797-2.387 4.055-2.387 6.447 0 2.368.849 4.662 2.39 6.46l3.61 4.212v3.036c-3.715 2.105-6 5.994-6 10.302v9.292c0 4.411 3.589 8 8 8h22c2.414 0 4.434-1.721 4.899-4h17.101v-35.051c5.598-.507 10-5.221 10-10.949zm-14.26 10.507c.608.189 1.24.317 1.888.398-4.099 12.528-14.806 21.352-27.765 22.85-.086-.669-.217-1.326-.392-1.97 12.104-1.347 22.438-9.709 26.269-21.278zm-9.74 19.283v14.21h-2v-12.92c.683-.406 1.347-.839 2-1.29zm2-1.493c.688-.552 1.355-1.129 2-1.732v17.435h-2zm4-3.752c.699-.768 1.368-1.565 2-2.397v21.852h-2zm-14.386 15.455c-.381-.682-.947-1.212-1.614-1.557v-3.899c.676-.198 1.342-.415 2-.652v6.108zm-6.173-.856-.855.856h-.586v-4.248c1.357-.153 2.693-.373 4-.674v2.943c-.966.049-1.87.434-2.559 1.123zm-3.441-2.286c-1.721-.447-3-2-3-3.858 0-1.26.603-2.424 1.578-3.171.926 1.779 1.422 3.764 1.422 5.828zm3.559-34.858c.806.932 3.177 4.015 3.421 8.286l-2.98.993v3.721h-1.172c-1.557 0-3.021-.606-4.121-1.707l-1.414 1.414c1.478 1.479 3.443 2.293 5.535 2.293h1.03c-.447 1.72-1.999 3-3.858 3-1.764 0-3.473-.518-4.941-1.496l-.504-.336-1.109 1.664.504.336c.379.253.774.475 1.178.677l.685 4.114c-2.676-.187-5.276-1.003-7.585-2.388l-.228-.137v-2.929c1.904-1.421 3.265-3.442 3.844-5.759l.298-1.186-2.146-1.431c-.624-.416-.996-1.112-.996-1.893 0-1.233 1.003-2.236 2.236-2.236.345 0 .691.082 1 .236l2.764 1.382v-3.618c0-1.654 1.346-3 3-3zm-19.65 11.856c-1.231-1.436-1.909-3.268-1.909-5.158 0-1.998.742-3.879 2.083-5.343.889.41 1.875.645 2.917.645v-2c-2.757 0-5-2.243-5-5s2.243-5 5-5c.76 0 1.498.172 2.192.512l.858.42.458-.838c.708-1.292 2.046-2.094 3.492-2.094 1.458 0 2.795.804 3.494 2.052-.927 1.056-1.494 2.435-1.494 3.948h2c0-2.206 1.794-4 4-4s4 1.794 4 4-1.794 4-4 4h-4c-2.757 0-5 2.243-5 5v.385c-.552-.252-1.158-.385-1.764-.385-2.336 0-4.236 1.9-4.236 4.268 0 1.419.705 2.737 1.887 3.524l.97.647c-.452 1.653-1.399 3.111-2.707 4.198zm-1.909 28.144v-9.292c0-3.579 1.909-6.795 4.993-8.546l.205.123c2.83 1.698 6.052 2.62 9.346 2.699.347.368.667.753.964 1.153-1.546 1.115-2.508 2.913-2.508 4.863 0 2.967 2.167 5.431 5 5.91v1.09h-10v-7.764c0-1.76-.979-3.343-2.553-4.13l-.895 1.789c.893.446 1.448 1.343 1.448 2.341v8.35l-1.707 1.707 1.414 1.414 1.707-1.707h12.586v6h-14c-3.309 0-6-2.691-6-6zm28 6h-6v-6.586l.855-.856c.36-.36.839-.558 1.349-.558.727 0 1.38.404 1.705 1.053l.472.947h1.619c1.654 0 3 1.346 3 3s-1.346 3-3 3zm2-7.576v-7.314c.676-.291 1.347-.593 2-.925v9.846c-.517-.694-1.199-1.255-2-1.607zm16 3.576v-24.813c.728-1.19 1.407-2.416 2-3.702v28.515zm3-35c-4.963 0-9-4.038-9-9s4.037-9 9-9 9 4.038 9 9-4.037 9-9 9z"/><path d="m21 20c0-.551.448-1 1-1s1 .449 1 1h2c0-1.654-1.346-3-3-3s-3 1.346-3 3z"/></g></svg>